<svg xmlns="http://www.w3.org/2000/svg" xmlns:xlink="http://www.w3.org/1999/xlink" version="1.1" x="0px" y="0px" viewBox="0 0 64 80" style="enable-background:new 0 0 64 64;" xml:space="preserve"><g><path d="M22.4,25.5c0.8,1.9,1.7,3.7,2.2,5.7c0.2,1,0.4,2.1,0.3,3c1.3-0.1,2.5,0,3.7,0.3c2.5,0.7,4.1,2,5.4,3.1   c1.1,0.9,1.8,1.5,2.9,1.8c0.8,0.2,1.7,0.1,2.6-0.2c-0.2-0.4-0.4-0.8-0.6-1.2c-0.7-1.4-1.1-2.8-1-4.4c0.1-1.3,0.3-2.6,0.7-3.8   c0.8-2.3,1.7-4.5,2.6-6.7c0.6-1.5,1.1-2.9,1.6-4.4c0.4-1.3-0.1-2.1-1.4-2.5c0,0,0,0,0,0c-1.2-0.3-2.4-0.6-3.6-0.9   c-0.8-0.2-1.7-0.4-2.5-0.7c-0.7-0.2-1.2-0.8-1.3-1.6c-0.1-0.6-0.2-1.2-0.2-1.8c0-0.3-0.2-0.5-0.5-0.6c-0.3-0.1-0.7-0.2-1.1-0.3V9.8   c0-0.1,0-0.2,0-0.3c0-0.1,0.1-0.2,0.1-0.2c0.6-0.5,0.6-0.7,0.1-1.2c-0.3-0.3-0.3-0.6-0.2-0.9c0.1-0.2,0.2-0.4,0.4-0.6   c0.2-0.4,0.3-0.8,0.3-1.2c-0.1-0.6-0.6-1.2-1.2-1.3C31,4,30.4,4.3,30.2,4.9c-0.1,0.2-0.2,0.5-0.1,0.8c0.1,0.4,0.3,0.8,0.5,1.2   c0.3,0.5,0.3,0.9-0.1,1.3c-0.4,0.3-0.3,0.7,0.1,1c0.1,0.1,0.2,0.2,0.2,0.3c0,0.3,0,0.7,0,1c-0.4,0.1-0.7,0.2-1,0.3   c-0.4,0.1-0.6,0.4-0.6,0.8c0,0.6-0.2,1.2-0.2,1.8c-0.1,0.6-0.4,1.1-1,1.3c-0.4,0.2-0.9,0.3-1.3,0.5c-1.7,0.4-3.5,0.8-5.2,1.3   c-1.4,0.4-1.9,1.2-1.5,2.6C20.6,21.2,21.5,23.4,22.4,25.5z"/><path d="M37.8,45.7c-0.8,0-1.5-0.1-2.2-0.2c-2.6-0.6-4.3-2-5.6-3.1c-1-0.9-1.8-1.6-3-1.9c-1.3-0.3-2.9-0.1-4.7,0.7   c-0.7,1.5-1.1,3.1-1.2,4.7c0,0.9,0,1.9,0,2.8c0.1,1.1,0.2,2.2,0.3,3.2c0.2,1.6,1.1,2.4,2.6,2.8c0,0,0.1,0,0.1,0   c1.7,0.4,3.3,0.6,5,0.7c0.4,0,0.9,0.1,1.3,0.1h0.2v3.9c0,0.3,0.3,0.6,0.6,0.6c0.3,0,0.6-0.3,0.6-0.6v-3.9l0.5,0c0.2,0,0.3,0,0.5,0   c1.1-0.1,2.3-0.2,3.4-0.3c1.1-0.2,2.1-0.4,3.1-0.7c0.9-0.2,1.5-0.9,1.6-1.8c0.2-1.4,0.4-2.8,0.5-4.1c0.1-1.1,0.1-2.2,0-3.3   C40.2,45.5,39,45.7,37.8,45.7z"/><path d="M27,38.4c1.6,0.3,2.6,1.2,3.8,2.2c1.2,1,2.5,2.2,4.6,2.7c3.8,1,8.3-0.6,13.4-4.6l-1.3-1.6c-0.8,0.7-1.6,1.2-2.4,1.8v1.4   h-0.5v-1.1c-0.8,0.5-1.5,0.9-2.3,1.2V42h-0.5v-1.3c-0.6,0.3-1.2,0.5-1.8,0.6v1.4h-0.5v-1.3c-0.6,0.1-1.2,0.2-1.8,0.2v1.2h-0.5v-1.3   c-0.5,0-0.9-0.1-1.4-0.2c-0.3-0.1-0.6-0.2-0.9-0.3v1.1h-0.5v-1.3c-0.8-0.4-1.5-1-2.3-1.6v1.2h-0.5v-1.6c-0.7-0.6-1.4-1.2-2.3-1.6   v1.3h-0.5v-1.5c-0.5-0.2-1-0.4-1.5-0.5c-0.2-0.1-0.5-0.1-0.7-0.1v1.4h-0.5v-1.4c-0.7,0-1.5,0-2.3,0.1v1.3h-0.5v-1.2   c-0.7,0.2-1.5,0.4-2.3,0.8V39h-0.5v-1.4c-0.7,0.4-1.5,0.8-2.3,1.3v1.6h-0.5v-1.2c-0.8,0.6-1.7,1.3-2.6,2.1l1.4,1.5   C20.5,39.3,24,37.8,27,38.4z"/></g><text x="0" y="79" fill="#000000" font-size="5px" font-weight="bold" font-family="'Helvetica Neue', Helvetica, Arial-Unicode, Arial, Sans-serif">Created by Arafat Uddin</text><text x="0" y="84" fill="#000000" font-size="5px" font-weight="bold" font-family="'Helvetica Neue', Helvetica, Arial-Unicode, Arial, Sans-serif">from the Noun Project</text></svg>